<svg width="944" height="180" viewBox="0 0 944 184" fill="none" xmlns="http://www.w3.org/2000/svg"><path clip-rule="evenodd" d="M92.09 179.935C39.88 179.935 1 142.532 1 90.83 1 38.655 39.612 1.724 92.09 1.724c52.273 0 90.85 36.966 90.85 89.106 0 51.667-38.844 89.105-90.85 89.105zm0-37.697c28.774 0 48.28-21.621 48.28-51.408 0-29.633-19.581-51.408-48.28-51.408-28.665 0-48.52 21.776-48.52 51.408 0 29.786 19.779 51.408 48.52 51.408zm244.119-5.567v-27.475h-53.825v-34.56h93.993v81.124l-.17.149c-6.086 5.35-15.41 10.961-26.611 15.331-14.618 5.702-31.352 8.937-49.892 8.937-58.322 0-95.896-35.628-95.896-90.313C203.808 37.972 240.747 1 292.976 1c24.337 0 43.587 6.44 57.773 17.856 11.279 9.077 18.75 20.95 21.767 32.494l.163.626h-43.89l-.149-.175c-6.959-8.157-18.85-14.07-35.664-14.07-27.803 0-46.839 21.85-46.839 52.133 0 32.911 20.526 54.064 54.528 54.064 15.898 0 28.869-3.006 35.544-7.257v0zm115.62-97.25v29.904h60.794v35.525h-60.794v35.698h111.256v36.49H409.979V4.621h143.734v34.8H451.829zm177.336 20.504v117.113h-40.888V4.621H635.4l79.992 104.053V4.621h39.927v172.9h-33.903L629.165 59.925zm228.02-24.607c-18.948 0-29.297 5.632-29.297 15.675 0 8.977 7.497 14.232 22.62 15.92 3.398.35 6.612.652 10.469.989l2.528.218 6.559.558c2.661.228 4.968.432 7.345.649 42.795 3.45 65.099 20.555 65.099 55.062 0 35.054-27.449 55.788-76.192 55.788-27.305 0-48.121-6.34-62.904-17.882-12.174-9.504-19.782-22.201-23.127-36.342l-.145-.616h43.976l.129.307c5.007 11.948 19.352 20.457 42.071 20.457 21.591 0 32.901-6.955 32.901-18.815 0-11.465-7.374-16.474-24.309-18.335-4.855-.567-8.97-.982-14.727-1.507l-1.575-.143c-7.27-.657-7.705-.697-10.844-1.005-39.866-4.108-62.684-22.475-62.684-53.613 0-32.078 28.213-51.2 72.107-51.2 26.047 0 45.825 5.756 59.772 16.215 11.454 8.59 18.514 20.046 21.453 32.7l.142.613h-42.004l-.145-.246c-5.184-8.789-18.953-15.447-39.218-15.447z" stroke="#14C5C4"/></svg>