<svg width="941" height="173" viewBox="0 0 941 175" fill="none" xmlns="http://www.w3.org/2000/svg"><path clip-rule="evenodd" d="M136.66 142.771H55.99l-12.753 29.657H1L76.267 0h42.522l75.025 172.428h-44.402l-12.752-29.657zm-65.563-35.237h50.456L96.325 48.782l-25.228 58.752zm143.11 64.894V.241h71.241c57.416 0 94.098 31.821 94.098 86.093 0 53.491-37.193 86.094-94.098 86.094h-71.241zm41.904-135.985v99.783h28.615c31.895 0 52.195-18.95 52.195-49.892 0-31.715-19.818-49.891-52.195-49.891h-28.615zM513.839 142.77h-80.67l-12.753 29.657h-42.237L453.446 0h42.522l75.025 172.428h-44.402l-12.752-29.657zm-65.563-35.237h50.456l-25.228-58.752-25.228 58.752zm184.773 4.617v60.277h-41.663V.241h100.355c39.441 0 61.856 19.887 61.856 55.714 0 35.782-22.642 56.196-61.856 56.196h-58.692zm0-75.226v38.542h54.842c14.97 0 22.84-6.909 22.84-19.271 0-12.96-7.454-19.271-22.84-19.271h-54.842zm242.299 0v135.503h-41.663V36.925h-64.726V.241h171.114v36.684h-64.725z" stroke="#14C5C4"/></svg>