<svg width="1490" height="132" viewBox="0 0 1490 134" fill="none" xmlns="http://www.w3.org/2000/svg"><path clip-rule="evenodd" d="M67.138 100.922H45.681l-7.867 30.57H12.069l7.867-30.57H.506V77.94H25.87l6.69-25.893H13.314V29.064h25.178L45.811.508h25.927L64.42 29.064h21.275L93.013.508h26.111l-7.318 28.556h19.247v22.983H105.69L99 77.94h19.246v22.982h-25.18l-7.866 30.57H59.27l7.867-30.57zM51.485 78.267h21.792l6.797-26.756H58.283l-6.798 26.756zm96.269 53.225V.508h54.358c43.774 0 71.76 24.212 71.76 65.492 0 40.687-28.374 65.492-71.76 65.492h-54.358zm30.905-102.198v75.634h21.952c24.54 0 40.141-14.36 40.141-37.817 0-24.045-15.229-37.817-40.141-37.817h-21.952zM388.92 78.352l29.229 53.14H384.44l-27.28-49.424h-34.658v49.424h-31.929V.508h76.161c29.558 0 46.517 14.576 46.517 41.329 0 17.886-8.629 30.534-24.331 36.515zm-66.335-50.168v26.755h40.658c11.428 0 17.007-4.361 17.007-13.102 0-9.514-5.336-13.653-17.007-13.653h-40.658zm111.914 103.308V.508h32.012v130.984h-32.012zm86.689-88.674v88.309h-31.333V.507h36.007l60.616 78.43V.507h30.602v130.985h-25.957l-69.935-88.674zm151.103 30.974v57.7h-31.867V.508h31.867V56.03L730.568.508h41.579L706.09 63.626l68.934 67.866h-43.552l-59.181-57.7zm193.285 9.561L898.17.508h44.404V131.31H911.55V35.352l-37.21 96.14h-21.556l-36.66-95.391v95.209h-29.56V.508h46.417l32.595 82.845zm130.361-56.202v22.416h46.463v27.192h-46.463v26.809h85.023v27.924H963.704V.508H1073.8V27.15h-77.863zm173.443 1.464v102.877h-31.71V28.615h-48.86V.508h129.44v28.107h-48.87zm140.61 0v102.877h-31.71V28.615h-48.87V.508h129.44v28.107h-48.86zm136.16 80.393h-61l-9.67 22.484h-32.3L1400.36.508h32.4l57 130.984h-33.94l-9.67-22.484zm-49.39-26.297h38.31l-19.15-43.774-19.16 43.774z" stroke="#14C5C4"/></svg>